<?xml version="1.0" encoding="UTF-8"?>
<!DOCTYPE svg PUBLIC "-//W3C//DTD SVG 1.1//EN" "http://www.w3.org/Graphics/SVG/1.1/DTD/svg11.dtd">
<svg width="229mm" height="142mm" viewBox="0 0 22900 14200" version="1.1" xmlns="http://www.w3.org/2000/svg" xmlns:xlink="http://www.w3.org/1999/xlink" stroke-width="28.222" stroke-linejoin="round" xml:space="preserve">
 <path fill="rgb(255,255,255)" stroke="none" d="M 11423,14186 L -13,14186 -13,-13 22859,-13 22859,14186 11423,14186 Z"/>
 <path fill="none" stroke="rgb(179,179,179)" stroke-linejoin="round" d="M 12146,11491 L 2076,11491 2076,1669 22216,1669 22216,11491 12146,11491 Z"/>
 <path fill="none" stroke="rgb(179,179,179)" stroke-linejoin="round" d="M 22216,11490 L 2076,11490"/>
 <path fill="none" stroke="rgb(179,179,179)" stroke-linejoin="round" d="M 22216,10262 L 2076,10262"/>
 <path fill="none" stroke="rgb(179,179,179)" stroke-linejoin="round" d="M 22216,9034 L 2076,9034"/>
 <path fill="none" stroke="rgb(179,179,179)" stroke-linejoin="round" d="M 22216,7806 L 2076,7806"/>
 <path fill="none" stroke="rgb(179,179,179)" stroke-linejoin="round" d="M 22216,6579 L 2076,6579"/>
 <path fill="none" stroke="rgb(179,179,179)" stroke-linejoin="round" d="M 22216,5351 L 2076,5351"/>
 <path fill="none" stroke="rgb(179,179,179)" stroke-linejoin="round" d="M 22216,4123 L 2076,4123"/>
 <path fill="none" stroke="rgb(179,179,179)" stroke-linejoin="round" d="M 22216,2895 L 2076,2895"/>
 <path fill="none" stroke="rgb(179,179,179)" stroke-linejoin="round" d="M 22216,1668 L 2076,1668"/>
 <path fill="none" stroke="rgb(179,179,179)" stroke-linejoin="round" d="M 2076,11640 L 2076,11490"/>
 <path fill="none" stroke="rgb(179,179,179)" stroke-linejoin="round" d="M 2076,11640 L 2076,11490"/>
 <path fill="none" stroke="rgb(179,179,179)" stroke-linejoin="round" d="M 2951,11640 L 2951,11490"/>
 <path fill="none" stroke="rgb(179,179,179)" stroke-linejoin="round" d="M 2951,11640 L 2951,11490"/>
 <path fill="none" stroke="rgb(179,179,179)" stroke-linejoin="round" d="M 3827,11640 L 3827,11490"/>
 <path fill="none" stroke="rgb(179,179,179)" stroke-linejoin="round" d="M 3827,11640 L 3827,11490"/>
 <path fill="none" stroke="rgb(179,179,179)" stroke-linejoin="round" d="M 4703,11640 L 4703,11490"/>
 <path fill="none" stroke="rgb(179,179,179)" stroke-linejoin="round" d="M 4703,11640 L 4703,11490"/>
 <path fill="none" stroke="rgb(179,179,179)" stroke-linejoin="round" d="M 5578,11640 L 5578,11490"/>
 <path fill="none" stroke="rgb(179,179,179)" stroke-linejoin="round" d="M 5578,11640 L 5578,11490"/>
 <path fill="none" stroke="rgb(179,179,179)" stroke-linejoin="round" d="M 6454,11640 L 6454,11490"/>
 <path fill="none" stroke="rgb(179,179,179)" stroke-linejoin="round" d="M 6454,11640 L 6454,11490"/>
 <path fill="none" stroke="rgb(179,179,179)" stroke-linejoin="round" d="M 7330,11640 L 7330,11490"/>
 <path fill="none" stroke="rgb(179,179,179)" stroke-linejoin="round" d="M 7330,11640 L 7330,11490"/>
 <path fill="none" stroke="rgb(179,179,179)" stroke-linejoin="round" d="M 8205,11640 L 8205,11490"/>
 <path fill="none" stroke="rgb(179,179,179)" stroke-linejoin="round" d="M 8205,11640 L 8205,11490"/>
 <path fill="none" stroke="rgb(179,179,179)" stroke-linejoin="round" d="M 9081,11640 L 9081,11490"/>
 <path fill="none" stroke="rgb(179,179,179)" stroke-linejoin="round" d="M 9081,11640 L 9081,11490"/>
 <path fill="none" stroke="rgb(179,179,179)" stroke-linejoin="round" d="M 9957,11640 L 9957,11490"/>
 <path fill="none" stroke="rgb(179,179,179)" stroke-linejoin="round" d="M 9957,11640 L 9957,11490"/>
 <path fill="none" stroke="rgb(179,179,179)" stroke-linejoin="round" d="M 10832,11640 L 10832,11490"/>
 <path fill="none" stroke="rgb(179,179,179)" stroke-linejoin="round" d="M 10832,11640 L 10832,11490"/>
 <path fill="none" stroke="rgb(179,179,179)" stroke-linejoin="round" d="M 11707,11640 L 11707,11490"/>
 <path fill="none" stroke="rgb(179,179,179)" stroke-linejoin="round" d="M 11707,11640 L 11707,11490"/>
 <path fill="none" stroke="rgb(179,179,179)" stroke-linejoin="round" d="M 12583,11640 L 12583,11490"/>
 <path fill="none" stroke="rgb(179,179,179)" stroke-linejoin="round" d="M 12583,11640 L 12583,11490"/>
 <path fill="none" stroke="rgb(179,179,179)" stroke-linejoin="round" d="M 13459,11640 L 13459,11490"/>
 <path fill="none" stroke="rgb(179,179,179)" stroke-linejoin="round" d="M 13459,11640 L 13459,11490"/>
 <path fill="none" stroke="rgb(179,179,179)" stroke-linejoin="round" d="M 14334,11640 L 14334,11490"/>
 <path fill="none" stroke="rgb(179,179,179)" stroke-linejoin="round" d="M 14334,11640 L 14334,11490"/>
 <path fill="none" stroke="rgb(179,179,179)" stroke-linejoin="round" d="M 15210,11640 L 15210,11490"/>
 <path fill="none" stroke="rgb(179,179,179)" stroke-linejoin="round" d="M 15210,11640 L 15210,11490"/>
 <path fill="none" stroke="rgb(179,179,179)" stroke-linejoin="round" d="M 16086,11640 L 16086,11490"/>
 <path fill="none" stroke="rgb(179,179,179)" stroke-linejoin="round" d="M 16086,11640 L 16086,11490"/>
 <path fill="none" stroke="rgb(179,179,179)" stroke-linejoin="round" d="M 16961,11640 L 16961,11490"/>
 <path fill="none" stroke="rgb(179,179,179)" stroke-linejoin="round" d="M 16961,11640 L 16961,11490"/>
 <path fill="none" stroke="rgb(179,179,179)" stroke-linejoin="round" d="M 17837,11640 L 17837,11490"/>
 <path fill="none" stroke="rgb(179,179,179)" stroke-linejoin="round" d="M 17837,11640 L 17837,11490"/>
 <path fill="none" stroke="rgb(179,179,179)" stroke-linejoin="round" d="M 18713,11640 L 18713,11490"/>
 <path fill="none" stroke="rgb(179,179,179)" stroke-linejoin="round" d="M 18713,11640 L 18713,11490"/>
 <path fill="none" stroke="rgb(179,179,179)" stroke-linejoin="round" d="M 19588,11640 L 19588,11490"/>
 <path fill="none" stroke="rgb(179,179,179)" stroke-linejoin="round" d="M 19588,11640 L 19588,11490"/>
 <path fill="none" stroke="rgb(179,179,179)" stroke-linejoin="round" d="M 20464,11640 L 20464,11490"/>
 <path fill="none" stroke="rgb(179,179,179)" stroke-linejoin="round" d="M 20464,11640 L 20464,11490"/>
 <path fill="none" stroke="rgb(179,179,179)" stroke-linejoin="round" d="M 21340,11640 L 21340,11490"/>
 <path fill="none" stroke="rgb(179,179,179)" stroke-linejoin="round" d="M 21340,11640 L 21340,11490"/>
 <path fill="none" stroke="rgb(179,179,179)" stroke-linejoin="round" d="M 22216,11640 L 22216,11490"/>
 <path fill="none" stroke="rgb(179,179,179)" stroke-linejoin="round" d="M 22216,11640 L 22216,11490"/>
 <path fill="none" stroke="rgb(179,179,179)" stroke-linejoin="round" d="M 2076,11490 L 22216,11490"/>
 <path fill="none" stroke="rgb(179,179,179)" stroke-linejoin="round" d="M 1926,11490 L 2076,11490"/>
 <path fill="none" stroke="rgb(179,179,179)" stroke-linejoin="round" d="M 1926,11490 L 2076,11490"/>
 <path fill="none" stroke="rgb(179,179,179)" stroke-linejoin="round" d="M 1926,10262 L 2076,10262"/>
 <path fill="none" stroke="rgb(179,179,179)" stroke-linejoin="round" d="M 1926,10262 L 2076,10262"/>
 <path fill="none" stroke="rgb(179,179,179)" stroke-linejoin="round" d="M 1926,9034 L 2076,9034"/>
 <path fill="none" stroke="rgb(179,179,179)" stroke-linejoin="round" d="M 1926,9034 L 2076,9034"/>
 <path fill="none" stroke="rgb(179,179,179)" stroke-linejoin="round" d="M 1926,7806 L 2076,7806"/>
 <path fill="none" stroke="rgb(179,179,179)" stroke-linejoin="round" d="M 1926,7806 L 2076,7806"/>
 <path fill="none" stroke="rgb(179,179,179)" stroke-linejoin="round" d="M 1926,6579 L 2076,6579"/>
 <path fill="none" stroke="rgb(179,179,179)" stroke-linejoin="round" d="M 1926,6579 L 2076,6579"/>
 <path fill="none" stroke="rgb(179,179,179)" stroke-linejoin="round" d="M 1926,5351 L 2076,5351"/>
 <path fill="none" stroke="rgb(179,179,179)" stroke-linejoin="round" d="M 1926,5351 L 2076,5351"/>
 <path fill="none" stroke="rgb(179,179,179)" stroke-linejoin="round" d="M 1926,4123 L 2076,4123"/>
 <path fill="none" stroke="rgb(179,179,179)" stroke-linejoin="round" d="M 1926,4123 L 2076,4123"/>
 <path fill="none" stroke="rgb(179,179,179)" stroke-linejoin="round" d="M 1926,2895 L 2076,2895"/>
 <path fill="none" stroke="rgb(179,179,179)" stroke-linejoin="round" d="M 1926,2895 L 2076,2895"/>
 <path fill="none" stroke="rgb(179,179,179)" stroke-linejoin="round" d="M 1926,1668 L 2076,1668"/>
 <path fill="none" stroke="rgb(179,179,179)" stroke-linejoin="round" d="M 1926,1668 L 2076,1668"/>
 <path fill="none" stroke="rgb(179,179,179)" stroke-linejoin="round" d="M 2076,11490 L 2076,1668"/>
 <path fill="none" stroke="rgb(0,69,134)" stroke-width="80" stroke-linejoin="round" d="M 2076,10507 L 2951,10045 3827,9735 4703,9525 5578,9297 6454,9113 7330,8998 8205,8870 9081,8692 9957,8600 10832,8488 11707,8388 12583,8265 13459,8184 14334,8110 15210,7981 16086,7921 16961,7836 17837,7757 18713,7682 19588,7583 20464,7517 21340,7455 22216,7397"/>
 <path fill="none" stroke="rgb(255,66,14)" stroke-width="80" stroke-linejoin="round" d="M 2076,10507 L 2951,8761 3827,8420 4703,8420 5578,7397 6454,7397 7330,7981 8205,7397 9081,5351 9957,7397 10832,6579 11707,6579 12583,5351 13459,6579 14334,6579 15210,3305 16086,6579 16961,5351 17837,5351 18713,5351 19588,3305 20464,5351 21340,5351 22216,5351"/>
 <text class="SVGTextShape"><tspan class="TextParagraph" font-family="Liberation Sans, sans-serif" font-size="353px" font-weight="400"><tspan class="TextPosition" x="1983" y="12058"><tspan fill="rgb(0,0,0)" stroke="none" style="white-space: pre">1</tspan></tspan></tspan></text>
 <text class="SVGTextShape"><tspan class="TextParagraph" font-family="Liberation Sans, sans-serif" font-size="353px" font-weight="400"><tspan class="TextPosition" x="2858" y="12058"><tspan fill="rgb(0,0,0)" stroke="none" style="white-space: pre">2</tspan></tspan></tspan></text>
 <text class="SVGTextShape"><tspan class="TextParagraph" font-family="Liberation Sans, sans-serif" font-size="353px" font-weight="400"><tspan class="TextPosition" x="3734" y="12058"><tspan fill="rgb(0,0,0)" stroke="none" style="white-space: pre">3</tspan></tspan></tspan></text>
 <text class="SVGTextShape"><tspan class="TextParagraph" font-family="Liberation Sans, sans-serif" font-size="353px" font-weight="400"><tspan class="TextPosition" x="4610" y="12058"><tspan fill="rgb(0,0,0)" stroke="none" style="white-space: pre">4</tspan></tspan></tspan></text>
 <text class="SVGTextShape"><tspan class="TextParagraph" font-family="Liberation Sans, sans-serif" font-size="353px" font-weight="400"><tspan class="TextPosition" x="5485" y="12058"><tspan fill="rgb(0,0,0)" stroke="none" style="white-space: pre">5</tspan></tspan></tspan></text>
 <text class="SVGTextShape"><tspan class="TextParagraph" font-family="Liberation Sans, sans-serif" font-size="353px" font-weight="400"><tspan class="TextPosition" x="6361" y="12058"><tspan fill="rgb(0,0,0)" stroke="none" style="white-space: pre">6</tspan></tspan></tspan></text>
 <text class="SVGTextShape"><tspan class="TextParagraph" font-family="Liberation Sans, sans-serif" font-size="353px" font-weight="400"><tspan class="TextPosition" x="7237" y="12058"><tspan fill="rgb(0,0,0)" stroke="none" style="white-space: pre">7</tspan></tspan></tspan></text>
 <text class="SVGTextShape"><tspan class="TextParagraph" font-family="Liberation Sans, sans-serif" font-size="353px" font-weight="400"><tspan class="TextPosition" x="8112" y="12058"><tspan fill="rgb(0,0,0)" stroke="none" style="white-space: pre">8</tspan></tspan></tspan></text>
 <text class="SVGTextShape"><tspan class="TextParagraph" font-family="Liberation Sans, sans-serif" font-size="353px" font-weight="400"><tspan class="TextPosition" x="8988" y="12058"><tspan fill="rgb(0,0,0)" stroke="none" style="white-space: pre">9</tspan></tspan></tspan></text>
 <text class="SVGTextShape"><tspan class="TextParagraph" font-family="Liberation Sans, sans-serif" font-size="353px" font-weight="400"><tspan class="TextPosition" x="9772" y="12058"><tspan fill="rgb(0,0,0)" stroke="none" style="white-space: pre">10</tspan></tspan></tspan></text>
 <text class="SVGTextShape"><tspan class="TextParagraph" font-family="Liberation Sans, sans-serif" font-size="353px" font-weight="400"><tspan class="TextPosition" x="10647" y="12058"><tspan fill="rgb(0,0,0)" stroke="none" style="white-space: pre">11</tspan></tspan></tspan></text>
 <text class="SVGTextShape"><tspan class="TextParagraph" font-family="Liberation Sans, sans-serif" font-size="353px" font-weight="400"><tspan class="TextPosition" x="11522" y="12058"><tspan fill="rgb(0,0,0)" stroke="none" style="white-space: pre">12</tspan></tspan></tspan></text>
 <text class="SVGTextShape"><tspan class="TextParagraph" font-family="Liberation Sans, sans-serif" font-size="353px" font-weight="400"><tspan class="TextPosition" x="12398" y="12058"><tspan fill="rgb(0,0,0)" stroke="none" style="white-space: pre">13</tspan></tspan></tspan></text>
 <text class="SVGTextShape"><tspan class="TextParagraph" font-family="Liberation Sans, sans-serif" font-size="353px" font-weight="400"><tspan class="TextPosition" x="13274" y="12058"><tspan fill="rgb(0,0,0)" stroke="none" style="white-space: pre">14</tspan></tspan></tspan></text>
 <text class="SVGTextShape"><tspan class="TextParagraph" font-family="Liberation Sans, sans-serif" font-size="353px" font-weight="400"><tspan class="TextPosition" x="14149" y="12058"><tspan fill="rgb(0,0,0)" stroke="none" style="white-space: pre">15</tspan></tspan></tspan></text>
 <text class="SVGTextShape"><tspan class="TextParagraph" font-family="Liberation Sans, sans-serif" font-size="353px" font-weight="400"><tspan class="TextPosition" x="15025" y="12058"><tspan fill="rgb(0,0,0)" stroke="none" style="white-space: pre">16</tspan></tspan></tspan></text>
 <text class="SVGTextShape"><tspan class="TextParagraph" font-family="Liberation Sans, sans-serif" font-size="353px" font-weight="400"><tspan class="TextPosition" x="15901" y="12058"><tspan fill="rgb(0,0,0)" stroke="none" style="white-space: pre">17</tspan></tspan></tspan></text>
 <text class="SVGTextShape"><tspan class="TextParagraph" font-family="Liberation Sans, sans-serif" font-size="353px" font-weight="400"><tspan class="TextPosition" x="16776" y="12058"><tspan fill="rgb(0,0,0)" stroke="none" style="white-space: pre">18</tspan></tspan></tspan></text>
 <text class="SVGTextShape"><tspan class="TextParagraph" font-family="Liberation Sans, sans-serif" font-size="353px" font-weight="400"><tspan class="TextPosition" x="17652" y="12058"><tspan fill="rgb(0,0,0)" stroke="none" style="white-space: pre">19</tspan></tspan></tspan></text>
 <text class="SVGTextShape"><tspan class="TextParagraph" font-family="Liberation Sans, sans-serif" font-size="353px" font-weight="400"><tspan class="TextPosition" x="18528" y="12058"><tspan fill="rgb(0,0,0)" stroke="none" style="white-space: pre">20</tspan></tspan></tspan></text>
 <text class="SVGTextShape"><tspan class="TextParagraph" font-family="Liberation Sans, sans-serif" font-size="353px" font-weight="400"><tspan class="TextPosition" x="19403" y="12058"><tspan fill="rgb(0,0,0)" stroke="none" style="white-space: pre">21</tspan></tspan></tspan></text>
 <text class="SVGTextShape"><tspan class="TextParagraph" font-family="Liberation Sans, sans-serif" font-size="353px" font-weight="400"><tspan class="TextPosition" x="20279" y="12058"><tspan fill="rgb(0,0,0)" stroke="none" style="white-space: pre">22</tspan></tspan></tspan></text>
 <text class="SVGTextShape"><tspan class="TextParagraph" font-family="Liberation Sans, sans-serif" font-size="353px" font-weight="400"><tspan class="TextPosition" x="21155" y="12058"><tspan fill="rgb(0,0,0)" stroke="none" style="white-space: pre">23</tspan></tspan></tspan></text>
 <text class="SVGTextShape"><tspan class="TextParagraph" font-family="Liberation Sans, sans-serif" font-size="353px" font-weight="400"><tspan class="TextPosition" x="22031" y="12058"><tspan fill="rgb(0,0,0)" stroke="none" style="white-space: pre">24</tspan></tspan></tspan></text>
 <text class="SVGTextShape"><tspan class="TextParagraph" font-family="Liberation Sans, sans-serif" font-size="353px" font-weight="400"><tspan class="TextPosition" x="1641" y="11610"><tspan fill="rgb(0,0,0)" stroke="none" style="white-space: pre">0</tspan></tspan></tspan></text>
 <text class="SVGTextShape"><tspan class="TextParagraph" font-family="Liberation Sans, sans-serif" font-size="353px" font-weight="400"><tspan class="TextPosition" x="1641" y="10382"><tspan fill="rgb(0,0,0)" stroke="none" style="white-space: pre">5</tspan></tspan></tspan></text>
 <text class="SVGTextShape"><tspan class="TextParagraph" font-family="Liberation Sans, sans-serif" font-size="353px" font-weight="400"><tspan class="TextPosition" x="1456" y="9154"><tspan fill="rgb(0,0,0)" stroke="none" style="white-space: pre">10</tspan></tspan></tspan></text>
 <text class="SVGTextShape"><tspan class="TextParagraph" font-family="Liberation Sans, sans-serif" font-size="353px" font-weight="400"><tspan class="TextPosition" x="1456" y="7926"><tspan fill="rgb(0,0,0)" stroke="none" style="white-space: pre">15</tspan></tspan></tspan></text>
 <text class="SVGTextShape"><tspan class="TextParagraph" font-family="Liberation Sans, sans-serif" font-size="353px" font-weight="400"><tspan class="TextPosition" x="1456" y="6699"><tspan fill="rgb(0,0,0)" stroke="none" style="white-space: pre">20</tspan></tspan></tspan></text>
 <text class="SVGTextShape"><tspan class="TextParagraph" font-family="Liberation Sans, sans-serif" font-size="353px" font-weight="400"><tspan class="TextPosition" x="1456" y="5471"><tspan fill="rgb(0,0,0)" stroke="none" style="white-space: pre">25</tspan></tspan></tspan></text>
 <text class="SVGTextShape"><tspan class="TextParagraph" font-family="Liberation Sans, sans-serif" font-size="353px" font-weight="400"><tspan class="TextPosition" x="1456" y="4243"><tspan fill="rgb(0,0,0)" stroke="none" style="white-space: pre">30</tspan></tspan></tspan></text>
 <text class="SVGTextShape"><tspan class="TextParagraph" font-family="Liberation Sans, sans-serif" font-size="353px" font-weight="400"><tspan class="TextPosition" x="1456" y="3015"><tspan fill="rgb(0,0,0)" stroke="none" style="white-space: pre">35</tspan></tspan></tspan></text>
 <text class="SVGTextShape"><tspan class="TextParagraph" font-family="Liberation Sans, sans-serif" font-size="353px" font-weight="400"><tspan class="TextPosition" x="1456" y="1788"><tspan fill="rgb(0,0,0)" stroke="none" style="white-space: pre">40</tspan></tspan></tspan></text>
 <text class="SVGTextShape"><tspan class="TextParagraph" font-family="Liberation Sans, sans-serif" font-size="459px" font-weight="400"><tspan class="TextPosition" x="5536" y="942"><tspan fill="rgb(0,0,0)" stroke="none" style="white-space: pre">Závislost odporu vlákna žárovky (24V) na napájecím napětí</tspan></tspan></tspan></text>
 <path fill="none" stroke="rgb(0,69,134)" stroke-width="80" stroke-linejoin="round" d="M 9929,13885 L 10729,13885"/>
 <path fill="none" stroke="rgb(255,66,14)" stroke-width="80" stroke-linejoin="round" d="M 11538,13885 L 12338,13885"/>
 <text class="SVGTextShape"><tspan class="TextParagraph" font-family="Liberation Sans, sans-serif" font-size="353px" font-weight="400"><tspan class="TextPosition" x="10829" y="14005"><tspan fill="rgb(0,0,0)" stroke="none" style="white-space: pre">RS</tspan></tspan></tspan></text>
 <text class="SVGTextShape"><tspan class="TextParagraph" font-family="Liberation Sans, sans-serif" font-size="353px" font-weight="400"><tspan class="TextPosition" x="12438" y="14005"><tspan fill="rgb(0,0,0)" stroke="none" style="white-space: pre">RD</tspan></tspan></tspan></text>
 <text class="SVGTextShape"><tspan class="TextParagraph" font-family="Liberation Sans, sans-serif" font-size="318px" font-weight="400"><tspan class="TextPosition" x="11557" y="12808"><tspan fill="rgb(0,0,0)" stroke="none" style="white-space: pre">U (V)</tspan></tspan></tspan></text>
 <text class="SVGTextShape" transform="rotate(-90 -17856 7087)"><tspan class="TextParagraph" font-family="Liberation Sans, sans-serif" font-size="318px" font-weight="400"><tspan class="TextPosition" x="824" y="7186"><tspan fill="rgb(0,0,0)" stroke="none" style="white-space: pre">R (Ω)</tspan></tspan></tspan></text>
</svg>