<?xml version="1.0" encoding="UTF-8"?>
<!DOCTYPE svg PUBLIC "-//W3C//DTD SVG 1.1//EN" "http://www.w3.org/Graphics/SVG/1.1/DTD/svg11.dtd">
<svg width="255mm" height="144mm" viewBox="0 0 25500 14400" version="1.1" xmlns="http://www.w3.org/2000/svg" xmlns:xlink="http://www.w3.org/1999/xlink" stroke-width="28.222" stroke-linejoin="round" xml:space="preserve">
 <path fill="rgb(255,255,255)" stroke="none" d="M 12725,14387 L -13,14387 -13,-13 25463,-13 25463,14387 12725,14387 Z"/>
 <path fill="none" stroke="rgb(179,179,179)" stroke-linejoin="round" d="M 13494,11688 L 2314,11688 2314,1677 24674,1677 24674,11688 13494,11688 Z"/>
 <path fill="none" stroke="rgb(179,179,179)" stroke-linejoin="round" d="M 24674,11687 L 2314,11687"/>
 <path fill="none" stroke="rgb(179,179,179)" stroke-linejoin="round" d="M 24674,10435 L 2314,10435"/>
 <path fill="none" stroke="rgb(179,179,179)" stroke-linejoin="round" d="M 24674,9184 L 2314,9184"/>
 <path fill="none" stroke="rgb(179,179,179)" stroke-linejoin="round" d="M 24674,7932 L 2314,7932"/>
 <path fill="none" stroke="rgb(179,179,179)" stroke-linejoin="round" d="M 24674,6682 L 2314,6682"/>
 <path fill="none" stroke="rgb(179,179,179)" stroke-linejoin="round" d="M 24674,5430 L 2314,5430"/>
 <path fill="none" stroke="rgb(179,179,179)" stroke-linejoin="round" d="M 24674,4179 L 2314,4179"/>
 <path fill="none" stroke="rgb(179,179,179)" stroke-linejoin="round" d="M 24674,2927 L 2314,2927"/>
 <path fill="none" stroke="rgb(179,179,179)" stroke-linejoin="round" d="M 24674,1676 L 2314,1676"/>
 <path fill="none" stroke="rgb(179,179,179)" stroke-linejoin="round" d="M 2314,11837 L 2314,11687"/>
 <path fill="none" stroke="rgb(179,179,179)" stroke-linejoin="round" d="M 2314,11837 L 2314,11687"/>
 <path fill="none" stroke="rgb(179,179,179)" stroke-linejoin="round" d="M 3286,11837 L 3286,11687"/>
 <path fill="none" stroke="rgb(179,179,179)" stroke-linejoin="round" d="M 3286,11837 L 3286,11687"/>
 <path fill="none" stroke="rgb(179,179,179)" stroke-linejoin="round" d="M 4258,11837 L 4258,11687"/>
 <path fill="none" stroke="rgb(179,179,179)" stroke-linejoin="round" d="M 4258,11837 L 4258,11687"/>
 <path fill="none" stroke="rgb(179,179,179)" stroke-linejoin="round" d="M 5230,11837 L 5230,11687"/>
 <path fill="none" stroke="rgb(179,179,179)" stroke-linejoin="round" d="M 5230,11837 L 5230,11687"/>
 <path fill="none" stroke="rgb(179,179,179)" stroke-linejoin="round" d="M 6202,11837 L 6202,11687"/>
 <path fill="none" stroke="rgb(179,179,179)" stroke-linejoin="round" d="M 6202,11837 L 6202,11687"/>
 <path fill="none" stroke="rgb(179,179,179)" stroke-linejoin="round" d="M 7175,11837 L 7175,11687"/>
 <path fill="none" stroke="rgb(179,179,179)" stroke-linejoin="round" d="M 7175,11837 L 7175,11687"/>
 <path fill="none" stroke="rgb(179,179,179)" stroke-linejoin="round" d="M 8147,11837 L 8147,11687"/>
 <path fill="none" stroke="rgb(179,179,179)" stroke-linejoin="round" d="M 8147,11837 L 8147,11687"/>
 <path fill="none" stroke="rgb(179,179,179)" stroke-linejoin="round" d="M 9119,11837 L 9119,11687"/>
 <path fill="none" stroke="rgb(179,179,179)" stroke-linejoin="round" d="M 9119,11837 L 9119,11687"/>
 <path fill="none" stroke="rgb(179,179,179)" stroke-linejoin="round" d="M 10091,11837 L 10091,11687"/>
 <path fill="none" stroke="rgb(179,179,179)" stroke-linejoin="round" d="M 10091,11837 L 10091,11687"/>
 <path fill="none" stroke="rgb(179,179,179)" stroke-linejoin="round" d="M 11063,11837 L 11063,11687"/>
 <path fill="none" stroke="rgb(179,179,179)" stroke-linejoin="round" d="M 11063,11837 L 11063,11687"/>
 <path fill="none" stroke="rgb(179,179,179)" stroke-linejoin="round" d="M 12036,11837 L 12036,11687"/>
 <path fill="none" stroke="rgb(179,179,179)" stroke-linejoin="round" d="M 12036,11837 L 12036,11687"/>
 <path fill="none" stroke="rgb(179,179,179)" stroke-linejoin="round" d="M 13007,11837 L 13007,11687"/>
 <path fill="none" stroke="rgb(179,179,179)" stroke-linejoin="round" d="M 13007,11837 L 13007,11687"/>
 <path fill="none" stroke="rgb(179,179,179)" stroke-linejoin="round" d="M 13979,11837 L 13979,11687"/>
 <path fill="none" stroke="rgb(179,179,179)" stroke-linejoin="round" d="M 13979,11837 L 13979,11687"/>
 <path fill="none" stroke="rgb(179,179,179)" stroke-linejoin="round" d="M 14951,11837 L 14951,11687"/>
 <path fill="none" stroke="rgb(179,179,179)" stroke-linejoin="round" d="M 14951,11837 L 14951,11687"/>
 <path fill="none" stroke="rgb(179,179,179)" stroke-linejoin="round" d="M 15924,11837 L 15924,11687"/>
 <path fill="none" stroke="rgb(179,179,179)" stroke-linejoin="round" d="M 15924,11837 L 15924,11687"/>
 <path fill="none" stroke="rgb(179,179,179)" stroke-linejoin="round" d="M 16896,11837 L 16896,11687"/>
 <path fill="none" stroke="rgb(179,179,179)" stroke-linejoin="round" d="M 16896,11837 L 16896,11687"/>
 <path fill="none" stroke="rgb(179,179,179)" stroke-linejoin="round" d="M 17868,11837 L 17868,11687"/>
 <path fill="none" stroke="rgb(179,179,179)" stroke-linejoin="round" d="M 17868,11837 L 17868,11687"/>
 <path fill="none" stroke="rgb(179,179,179)" stroke-linejoin="round" d="M 18840,11837 L 18840,11687"/>
 <path fill="none" stroke="rgb(179,179,179)" stroke-linejoin="round" d="M 18840,11837 L 18840,11687"/>
 <path fill="none" stroke="rgb(179,179,179)" stroke-linejoin="round" d="M 19812,11837 L 19812,11687"/>
 <path fill="none" stroke="rgb(179,179,179)" stroke-linejoin="round" d="M 19812,11837 L 19812,11687"/>
 <path fill="none" stroke="rgb(179,179,179)" stroke-linejoin="round" d="M 20785,11837 L 20785,11687"/>
 <path fill="none" stroke="rgb(179,179,179)" stroke-linejoin="round" d="M 20785,11837 L 20785,11687"/>
 <path fill="none" stroke="rgb(179,179,179)" stroke-linejoin="round" d="M 21757,11837 L 21757,11687"/>
 <path fill="none" stroke="rgb(179,179,179)" stroke-linejoin="round" d="M 21757,11837 L 21757,11687"/>
 <path fill="none" stroke="rgb(179,179,179)" stroke-linejoin="round" d="M 22729,11837 L 22729,11687"/>
 <path fill="none" stroke="rgb(179,179,179)" stroke-linejoin="round" d="M 22729,11837 L 22729,11687"/>
 <path fill="none" stroke="rgb(179,179,179)" stroke-linejoin="round" d="M 23701,11837 L 23701,11687"/>
 <path fill="none" stroke="rgb(179,179,179)" stroke-linejoin="round" d="M 23701,11837 L 23701,11687"/>
 <path fill="none" stroke="rgb(179,179,179)" stroke-linejoin="round" d="M 24674,11837 L 24674,11687"/>
 <path fill="none" stroke="rgb(179,179,179)" stroke-linejoin="round" d="M 24674,11837 L 24674,11687"/>
 <path fill="none" stroke="rgb(179,179,179)" stroke-linejoin="round" d="M 2314,11687 L 24674,11687"/>
 <path fill="none" stroke="rgb(179,179,179)" stroke-linejoin="round" d="M 2164,11687 L 2314,11687"/>
 <path fill="none" stroke="rgb(179,179,179)" stroke-linejoin="round" d="M 2164,11687 L 2314,11687"/>
 <path fill="none" stroke="rgb(179,179,179)" stroke-linejoin="round" d="M 2164,10435 L 2314,10435"/>
 <path fill="none" stroke="rgb(179,179,179)" stroke-linejoin="round" d="M 2164,10435 L 2314,10435"/>
 <path fill="none" stroke="rgb(179,179,179)" stroke-linejoin="round" d="M 2164,9184 L 2314,9184"/>
 <path fill="none" stroke="rgb(179,179,179)" stroke-linejoin="round" d="M 2164,9184 L 2314,9184"/>
 <path fill="none" stroke="rgb(179,179,179)" stroke-linejoin="round" d="M 2164,7932 L 2314,7932"/>
 <path fill="none" stroke="rgb(179,179,179)" stroke-linejoin="round" d="M 2164,7932 L 2314,7932"/>
 <path fill="none" stroke="rgb(179,179,179)" stroke-linejoin="round" d="M 2164,6682 L 2314,6682"/>
 <path fill="none" stroke="rgb(179,179,179)" stroke-linejoin="round" d="M 2164,6682 L 2314,6682"/>
 <path fill="none" stroke="rgb(179,179,179)" stroke-linejoin="round" d="M 2164,5430 L 2314,5430"/>
 <path fill="none" stroke="rgb(179,179,179)" stroke-linejoin="round" d="M 2164,5430 L 2314,5430"/>
 <path fill="none" stroke="rgb(179,179,179)" stroke-linejoin="round" d="M 2164,4179 L 2314,4179"/>
 <path fill="none" stroke="rgb(179,179,179)" stroke-linejoin="round" d="M 2164,4179 L 2314,4179"/>
 <path fill="none" stroke="rgb(179,179,179)" stroke-linejoin="round" d="M 2164,2927 L 2314,2927"/>
 <path fill="none" stroke="rgb(179,179,179)" stroke-linejoin="round" d="M 2164,2927 L 2314,2927"/>
 <path fill="none" stroke="rgb(179,179,179)" stroke-linejoin="round" d="M 2164,1676 L 2314,1676"/>
 <path fill="none" stroke="rgb(179,179,179)" stroke-linejoin="round" d="M 2164,1676 L 2314,1676"/>
 <path fill="none" stroke="rgb(179,179,179)" stroke-linejoin="round" d="M 2314,11687 L 2314,1676"/>
 <path fill="none" stroke="rgb(0,69,134)" stroke-width="80" stroke-linejoin="round" d="M 2314,11313 L 3286,11083 4258,10896 5230,10742 6202,10635 7175,10513 8147,10435 9119,10352 10091,10270 11063,10197 12036,10122 13007,10054 13979,9983 14951,9926 15924,9890 16896,9806 17868,9761 18840,9719 19812,9680 20785,9618 21757,9584 22729,9510 23701,9481 24674,9445"/>
 <path fill="none" stroke="rgb(255,66,14)" stroke-width="80" stroke-linejoin="round" d="M 2314,11313 L 3286,10122 4258,9601 5230,9411 6202,9761 7175,8905 8147,9601 9119,9184 10091,8905 11063,8905 12036,8558 13007,8558 13979,8111 14951,8558 15924,9183 16896,5430 17868,8558 18840,8558 19812,8558 20785,6681 21757,8558 22729,3344 23701,8558 24674,8111"/>
 <text class="SVGTextShape"><tspan class="TextParagraph" font-family="Liberation Sans, sans-serif" font-size="353px" font-weight="400"><tspan class="TextPosition" x="2129" y="12255"><tspan fill="rgb(0,0,0)" stroke="none" style="white-space: pre">10</tspan></tspan></tspan></text>
 <text class="SVGTextShape"><tspan class="TextParagraph" font-family="Liberation Sans, sans-serif" font-size="353px" font-weight="400"><tspan class="TextPosition" x="3101" y="12255"><tspan fill="rgb(0,0,0)" stroke="none" style="white-space: pre">20</tspan></tspan></tspan></text>
 <text class="SVGTextShape"><tspan class="TextParagraph" font-family="Liberation Sans, sans-serif" font-size="353px" font-weight="400"><tspan class="TextPosition" x="4073" y="12255"><tspan fill="rgb(0,0,0)" stroke="none" style="white-space: pre">30</tspan></tspan></tspan></text>
 <text class="SVGTextShape"><tspan class="TextParagraph" font-family="Liberation Sans, sans-serif" font-size="353px" font-weight="400"><tspan class="TextPosition" x="5045" y="12255"><tspan fill="rgb(0,0,0)" stroke="none" style="white-space: pre">40</tspan></tspan></tspan></text>
 <text class="SVGTextShape"><tspan class="TextParagraph" font-family="Liberation Sans, sans-serif" font-size="353px" font-weight="400"><tspan class="TextPosition" x="6017" y="12255"><tspan fill="rgb(0,0,0)" stroke="none" style="white-space: pre">50</tspan></tspan></tspan></text>
 <text class="SVGTextShape"><tspan class="TextParagraph" font-family="Liberation Sans, sans-serif" font-size="353px" font-weight="400"><tspan class="TextPosition" x="6990" y="12255"><tspan fill="rgb(0,0,0)" stroke="none" style="white-space: pre">60</tspan></tspan></tspan></text>
 <text class="SVGTextShape"><tspan class="TextParagraph" font-family="Liberation Sans, sans-serif" font-size="353px" font-weight="400"><tspan class="TextPosition" x="7962" y="12255"><tspan fill="rgb(0,0,0)" stroke="none" style="white-space: pre">70</tspan></tspan></tspan></text>
 <text class="SVGTextShape"><tspan class="TextParagraph" font-family="Liberation Sans, sans-serif" font-size="353px" font-weight="400"><tspan class="TextPosition" x="8934" y="12255"><tspan fill="rgb(0,0,0)" stroke="none" style="white-space: pre">80</tspan></tspan></tspan></text>
 <text class="SVGTextShape"><tspan class="TextParagraph" font-family="Liberation Sans, sans-serif" font-size="353px" font-weight="400"><tspan class="TextPosition" x="9906" y="12255"><tspan fill="rgb(0,0,0)" stroke="none" style="white-space: pre">90</tspan></tspan></tspan></text>
 <text class="SVGTextShape"><tspan class="TextParagraph" font-family="Liberation Sans, sans-serif" font-size="353px" font-weight="400"><tspan class="TextPosition" x="10785" y="12255"><tspan fill="rgb(0,0,0)" stroke="none" style="white-space: pre">100</tspan></tspan></tspan></text>
 <text class="SVGTextShape"><tspan class="TextParagraph" font-family="Liberation Sans, sans-serif" font-size="353px" font-weight="400"><tspan class="TextPosition" x="11758" y="12255"><tspan fill="rgb(0,0,0)" stroke="none" style="white-space: pre">110</tspan></tspan></tspan></text>
 <text class="SVGTextShape"><tspan class="TextParagraph" font-family="Liberation Sans, sans-serif" font-size="353px" font-weight="400"><tspan class="TextPosition" x="12730" y="12255"><tspan fill="rgb(0,0,0)" stroke="none" style="white-space: pre">120</tspan></tspan></tspan></text>
 <text class="SVGTextShape"><tspan class="TextParagraph" font-family="Liberation Sans, sans-serif" font-size="353px" font-weight="400"><tspan class="TextPosition" x="13701" y="12255"><tspan fill="rgb(0,0,0)" stroke="none" style="white-space: pre">130</tspan></tspan></tspan></text>
 <text class="SVGTextShape"><tspan class="TextParagraph" font-family="Liberation Sans, sans-serif" font-size="353px" font-weight="400"><tspan class="TextPosition" x="14673" y="12255"><tspan fill="rgb(0,0,0)" stroke="none" style="white-space: pre">140</tspan></tspan></tspan></text>
 <text class="SVGTextShape"><tspan class="TextParagraph" font-family="Liberation Sans, sans-serif" font-size="353px" font-weight="400"><tspan class="TextPosition" x="15646" y="12255"><tspan fill="rgb(0,0,0)" stroke="none" style="white-space: pre">150</tspan></tspan></tspan></text>
 <text class="SVGTextShape"><tspan class="TextParagraph" font-family="Liberation Sans, sans-serif" font-size="353px" font-weight="400"><tspan class="TextPosition" x="16618" y="12255"><tspan fill="rgb(0,0,0)" stroke="none" style="white-space: pre">160</tspan></tspan></tspan></text>
 <text class="SVGTextShape"><tspan class="TextParagraph" font-family="Liberation Sans, sans-serif" font-size="353px" font-weight="400"><tspan class="TextPosition" x="17590" y="12255"><tspan fill="rgb(0,0,0)" stroke="none" style="white-space: pre">170</tspan></tspan></tspan></text>
 <text class="SVGTextShape"><tspan class="TextParagraph" font-family="Liberation Sans, sans-serif" font-size="353px" font-weight="400"><tspan class="TextPosition" x="18562" y="12255"><tspan fill="rgb(0,0,0)" stroke="none" style="white-space: pre">180</tspan></tspan></tspan></text>
 <text class="SVGTextShape"><tspan class="TextParagraph" font-family="Liberation Sans, sans-serif" font-size="353px" font-weight="400"><tspan class="TextPosition" x="19534" y="12255"><tspan fill="rgb(0,0,0)" stroke="none" style="white-space: pre">190</tspan></tspan></tspan></text>
 <text class="SVGTextShape"><tspan class="TextParagraph" font-family="Liberation Sans, sans-serif" font-size="353px" font-weight="400"><tspan class="TextPosition" x="20507" y="12255"><tspan fill="rgb(0,0,0)" stroke="none" style="white-space: pre">200</tspan></tspan></tspan></text>
 <text class="SVGTextShape"><tspan class="TextParagraph" font-family="Liberation Sans, sans-serif" font-size="353px" font-weight="400"><tspan class="TextPosition" x="21479" y="12255"><tspan fill="rgb(0,0,0)" stroke="none" style="white-space: pre">210</tspan></tspan></tspan></text>
 <text class="SVGTextShape"><tspan class="TextParagraph" font-family="Liberation Sans, sans-serif" font-size="353px" font-weight="400"><tspan class="TextPosition" x="22451" y="12255"><tspan fill="rgb(0,0,0)" stroke="none" style="white-space: pre">220</tspan></tspan></tspan></text>
 <text class="SVGTextShape"><tspan class="TextParagraph" font-family="Liberation Sans, sans-serif" font-size="353px" font-weight="400"><tspan class="TextPosition" x="23423" y="12255"><tspan fill="rgb(0,0,0)" stroke="none" style="white-space: pre">230</tspan></tspan></tspan></text>
 <text class="SVGTextShape"><tspan class="TextParagraph" font-family="Liberation Sans, sans-serif" font-size="353px" font-weight="400"><tspan class="TextPosition" x="24396" y="12255"><tspan fill="rgb(0,0,0)" stroke="none" style="white-space: pre">240</tspan></tspan></tspan></text>
 <text class="SVGTextShape"><tspan class="TextParagraph" font-family="Liberation Sans, sans-serif" font-size="353px" font-weight="400"><tspan class="TextPosition" x="1879" y="11807"><tspan fill="rgb(0,0,0)" stroke="none" style="white-space: pre">0</tspan></tspan></tspan></text>
 <text class="SVGTextShape"><tspan class="TextParagraph" font-family="Liberation Sans, sans-serif" font-size="353px" font-weight="400"><tspan class="TextPosition" x="1694" y="10555"><tspan fill="rgb(0,0,0)" stroke="none" style="white-space: pre">50</tspan></tspan></tspan></text>
 <text class="SVGTextShape"><tspan class="TextParagraph" font-family="Liberation Sans, sans-serif" font-size="353px" font-weight="400"><tspan class="TextPosition" x="1508" y="9304"><tspan fill="rgb(0,0,0)" stroke="none" style="white-space: pre">100</tspan></tspan></tspan></text>
 <text class="SVGTextShape"><tspan class="TextParagraph" font-family="Liberation Sans, sans-serif" font-size="353px" font-weight="400"><tspan class="TextPosition" x="1508" y="8052"><tspan fill="rgb(0,0,0)" stroke="none" style="white-space: pre">150</tspan></tspan></tspan></text>
 <text class="SVGTextShape"><tspan class="TextParagraph" font-family="Liberation Sans, sans-serif" font-size="353px" font-weight="400"><tspan class="TextPosition" x="1508" y="6802"><tspan fill="rgb(0,0,0)" stroke="none" style="white-space: pre">200</tspan></tspan></tspan></text>
 <text class="SVGTextShape"><tspan class="TextParagraph" font-family="Liberation Sans, sans-serif" font-size="353px" font-weight="400"><tspan class="TextPosition" x="1508" y="5550"><tspan fill="rgb(0,0,0)" stroke="none" style="white-space: pre">250</tspan></tspan></tspan></text>
 <text class="SVGTextShape"><tspan class="TextParagraph" font-family="Liberation Sans, sans-serif" font-size="353px" font-weight="400"><tspan class="TextPosition" x="1508" y="4299"><tspan fill="rgb(0,0,0)" stroke="none" style="white-space: pre">300</tspan></tspan></tspan></text>
 <text class="SVGTextShape"><tspan class="TextParagraph" font-family="Liberation Sans, sans-serif" font-size="353px" font-weight="400"><tspan class="TextPosition" x="1508" y="3047"><tspan fill="rgb(0,0,0)" stroke="none" style="white-space: pre">350</tspan></tspan></tspan></text>
 <text class="SVGTextShape"><tspan class="TextParagraph" font-family="Liberation Sans, sans-serif" font-size="353px" font-weight="400"><tspan class="TextPosition" x="1508" y="1796"><tspan fill="rgb(0,0,0)" stroke="none" style="white-space: pre">400</tspan></tspan></tspan></text>
 <text class="SVGTextShape"><tspan class="TextParagraph" font-family="Liberation Sans, sans-serif" font-size="459px" font-weight="400"><tspan class="TextPosition" x="6719" y="946"><tspan fill="rgb(0,0,0)" stroke="none" style="white-space: pre">Závislost odporu vlákna žárovky (230V) na napájecím napětí</tspan></tspan></tspan></text>
 <path fill="none" stroke="rgb(0,69,134)" stroke-width="80" stroke-linejoin="round" d="M 11231,14086 L 12031,14086"/>
 <path fill="none" stroke="rgb(255,66,14)" stroke-width="80" stroke-linejoin="round" d="M 12840,14086 L 13640,14086"/>
 <text class="SVGTextShape"><tspan class="TextParagraph" font-family="Liberation Sans, sans-serif" font-size="353px" font-weight="400"><tspan class="TextPosition" x="12131" y="14206"><tspan fill="rgb(0,0,0)" stroke="none" style="white-space: pre">RS</tspan></tspan></tspan></text>
 <text class="SVGTextShape"><tspan class="TextParagraph" font-family="Liberation Sans, sans-serif" font-size="353px" font-weight="400"><tspan class="TextPosition" x="13740" y="14206"><tspan fill="rgb(0,0,0)" stroke="none" style="white-space: pre">RD</tspan></tspan></tspan></text>
 <text class="SVGTextShape"><tspan class="TextParagraph" font-family="Liberation Sans, sans-serif" font-size="318px" font-weight="400"><tspan class="TextPosition" x="12859" y="13009"><tspan fill="rgb(0,0,0)" stroke="none" style="white-space: pre">U (V)</tspan></tspan></tspan></text>
 <text class="SVGTextShape" transform="rotate(-90 -14754 7190)"><tspan class="TextParagraph" font-family="Liberation Sans, sans-serif" font-size="318px" font-weight="400"><tspan class="TextPosition" x="824" y="7289"><tspan fill="rgb(0,0,0)" stroke="none" style="white-space: pre">R (Ω)</tspan></tspan></tspan></text>
</svg>